<mxfile host="app.diagrams.net" agent="Mozilla/5.0 (Macintosh; Intel Mac OS X 10_15_7) AppleWebKit/537.36 (KHTML, like Gecko) Chrome/136.0.0.0 Safari/537.36" version="27.1.0">
  <diagram name="Page-1" id="rVk3VXsCYSslmrVwteC6">
    <mxGraphModel dx="5704" dy="1748" grid="1" gridSize="10" guides="1" tooltips="1" connect="1" arrows="1" fold="1" page="1" pageScale="1" pageWidth="850" pageHeight="1100" math="0" shadow="0">
      <root>
        <mxCell id="0" />
        <mxCell id="1" parent="0" />
        <mxCell id="Cp5TMdXFQTga1ehjYprz-1" value="" style="rounded=0;whiteSpace=wrap;html=1;" vertex="1" parent="1">
          <mxGeometry x="340" y="1610" width="1840" height="1160" as="geometry" />
        </mxCell>
        <mxCell id="Cp5TMdXFQTga1ehjYprz-26" value="&lt;h1 style=&quot;margin-top: 0px;&quot;&gt;&lt;font style=&quot;font-size: 46px;&quot;&gt;Decentralized Research Collaboration&lt;/font&gt;&lt;/h1&gt;" style="text;html=1;whiteSpace=wrap;overflow=hidden;rounded=0;fontFamily=Courier New;fontStyle=1" vertex="1" parent="1">
          <mxGeometry x="420" y="1750" width="650" height="140" as="geometry" />
        </mxCell>
        <mxCell id="Cp5TMdXFQTga1ehjYprz-31" value="" style="group;fillColor=none;strokeColor=none;" vertex="1" connectable="0" parent="1">
          <mxGeometry x="1240" y="1990" width="365" height="236" as="geometry" />
        </mxCell>
        <mxCell id="Cp5TMdXFQTga1ehjYprz-32" value="" style="rounded=1;whiteSpace=wrap;html=1;fillColor=default;strokeColor=light-dark(#924ddb, #ededed);labelBorderColor=none;fontColor=#FFFFFF;shadow=1;gradientColor=none;" vertex="1" parent="Cp5TMdXFQTga1ehjYprz-31">
          <mxGeometry width="329.2156862745098" height="236" as="geometry" />
        </mxCell>
        <mxCell id="Cp5TMdXFQTga1ehjYprz-33" value="&lt;font color=&quot;#7c59e6&quot;&gt;&lt;span style=&quot;font-size: 28px;&quot;&gt;&lt;b&gt;DAG Version Control&lt;/b&gt;&lt;/span&gt;&lt;/font&gt;" style="text;html=1;align=center;verticalAlign=middle;resizable=0;points=[];autosize=1;strokeColor=none;fillColor=none;" vertex="1" parent="Cp5TMdXFQTga1ehjYprz-31">
          <mxGeometry x="14.6056862745098" y="34.99818181818182" width="300" height="50" as="geometry" />
        </mxCell>
        <mxCell id="Cp5TMdXFQTga1ehjYprz-58" value="" style="shape=image;verticalLabelPosition=bottom;labelBackgroundColor=default;verticalAlign=top;aspect=fixed;imageAspect=0;image=data:image/png,iVBORw0KGgoAAAANSUhEUgAAAgAAAAIACAYAAAD0eNT6AAAAAXNSR0IArs4c6QAAAERlWElmTU0AKgAAAAgAAYdpAAQAAAABAAAAGgAAAAAAA6ABAAMAAAABAAEAAKACAAQAAAABAAACAKADAAQAAAABAAACAAAAAAAL+LWFAABAAElEQVR4Ae2dB7gkRdX+ybvAEpa4pGWXnJGMxJWsJEkiEhbBDz4liagkFRQ+gh+fAhIVyQIqKkmUHCRLznlhSYsLC5uIC///+y53YHb2zp3Q3XVOVb31PO+duTPddc75VXV1T3VV9bTTKImAbwID4d6y0NAeLYTXeXo0G15nhAZATBOgj6Gx0CfQaOg16BXopZ7X5/HK7ZREQAREoJHATPiA7c1gaFFoEYhtDj9nWzQ9NDvENmYixLZkPPQu9DL0DPQsxDbHfZrWvYdyMCcCMyDY1aGNoHWhlaCFoTLTp8iMB+kD0IPQ/dB90IeQkgiIQF4E+MNiM2gNaFVoBYg/KoomXhjwQuAO6BboNugdSEkERKCOAE/yh0DXQOOg/2cgHqxXQt+FhkBKIiACaRKYDmF9BToZehoK1d5Mgi3+2DgBYpunJALZEmCX2o+hx6FQB2Andh6BXz+A5oeUREAE4ifAbv3joJFQJ21BVds+DD/YxgyClEQgeQIzI8LdoOshXg1XdWCVmS/HE1wNbQ/xl4OSCIhAXAQ2hrvXQWW2C2XmxbbwcmhVSEkEkiPAgXo/gt6AyjxwQufF+3n7QP0gJREQAd8EtoV7HOcTup3o1h7HJv0dWgdSEoHoCcyFCI6C3oa6PSg87scLmR9C/SElERABXwRWhzu3Qh7bjnZ9ugH+Lw8piUB0BNjVfzQ0Dmq3wse43UuIb2doWkhJBETAlgCn6J0L8Zd0jO1Jo88fIY5fQgMgJRGIgsDX4OXzUGNlTvn/uxAvpxApiYAI2BDYCma53keK7QwHLXIMkpIIuCXAxTL+AqV4ALYTEwfycHqPxgcAgpIIBCIwC+zwV387x2js25yDOBmvkgi4IvA9eMOVsGI/wMrwn9MaeQ9SSQREoFoCSyB7TqUr47iNJY/HEC+nMyqJgDmBOeDBn6FYDp5QfnLq4KGQxgYAgpIIVEBgS+TJpXdDHdOe7ExA3LtVwFRZikDbBDhn9TnI04HhzZerwIcXSUoiIALlERiOrDhAztvxHtof3nJUEoHgBPaHxQ+g0BU+RntPgtMywUtIBkUgTQJHIqxURvmX0Z6dAh5aoCzNuu4uKnZp/y9URsXNKQ8+AGQ9d6Uph0QgLgLHwN2c2o12Y+Xga61JElddjs7bmeDxJVC7lVLbTclqItjxvqWSCIhA5wR+gF3UpjRncAX48DHFSiJQOgEuROF5Le1YGgbet9TgndKrpzJMnABvOcZyjFv6eUbi9UDhGRCYCzbvhSwrdkq2PwHLXQzKUSZFIEYCX4XTk6CU2oAqYzkqxkKWzz4JcNGJO6EqK2yOebMnYGufRS6vRMANgeXgSa5T/Yq0i99xU4JyJFoCM8Lza6AiFVH7Nuf3Pth+JdraIcdFoFoCsyN7TTNu3n701bZyhhanaSuJQFcEONo/l+U1+zqQqv5uHDgv31UJaScRSJvAxQiv6uMv5fyfBz+tQZL2MVJZdJrqF67xeRalyKeYKYmACHxGYHe8pHxyDhXbZapQItApAR184Ruff6KQNIWn05qq7VMkwIeKsWcs1EkydTt7p1hJFFM1BLhinR7qY9P4HFdNkSpXEYiKwF/hbeon5ZDxvQ2e80RVA+SsCQGuJPUQFLJyytYXvDk9UIMCTaq+jDohwCl/ahPKZ/B7J+UrNxwT+J0OPvPG5yWUgQbuOD5I5FplBPoh5xGQLgDKZ8BnJ6xbWckp4+gJ7IwIdOD5YHBR9LVJAYhA5wQOwi5qg6pj8DD46qFBndfL5PfgfNvXIR18fhjomQHJH3YKsI4AlxofBakNqpbBDnXM9VYEJhM4DX914PliwAVQOCZDSQRyIHAEglQbVD2DB8GZa7xMkTT9aAocWf2zGqI9G1LXkK9i5/MXuFzw7b7ckjciUDoB3vu/FGIvgFK1BBZA9vdB/IHxeZrqiuDzb/QmZQI86d8DrRFZkOwqvBt6GuIiOi9DnDdMcbDLvBCnvVBLQStCK0GDoZgSlwpeFmJ8SiKQKoHhCOx858GxneHF+FMQ33Oq9ASIC3ixvVkUWhlaHVoC8pzYdq7j2UH5FoYAHxgRS7cbH0h0AMSHg3SbBmHHPaHLoDFQDLFr+g4KSilpAl6nHvNX8hEQT+6dpMWw8YEQB915bWN4oaKUMYEZEPuLkNcKSr/GQidAS0Jlp/7IcFfoFoi9Bl45fAzfvP+igItKItAVAfY+ejv2+Cufs6LYQ1o0rYsMboK8xXhK0cC0f9wE9nBYKWsHCR//+VNozkCI2XV3FVSz7+31wkAcZEYEQhM4FQa9HG98gh5/8c9UAYStkOerkJdY/wNf+LRXpQwJ8MqWV7leKmPND/4SvxhiV71FWhtGH4Bq/nh5nQSfOJZBSQRSIsAT0GjIw3H2AvyoulucP2iudhIvmW8NKWVIYCfE7OGgq/eBA/s2c1AWvDVyJMRfA/X+Wb//jQM2ckEEyiSwBTKzPq5onxf985UZWB958cfXryEPcV/Wh5/6KmECnAvqoQLWfOA9Mqtf/c2KmfcmPXXZcYbD7M2c1eciECEBD93/94ObxXH1K9ittX9Wr2/DhzLGOURY9fJ1md1cVhWuN7u/hz/81e0xLQin7oV689vis4M8QpJPItAlgeexn8VxVLPJbv9Qv/wbEXHq/V+N4ycHrgOjlBEBD1fdtQPwRHD3vgYFFye5A6r5bPn6TEb1VKGmTYBjWiyPJd7iW9UY8Wywz4sQSw4/NGYg8wEJcNANR39aVriabXaBxZLYRcjFM2q+W77y1oSSCMRO4NsIwPI4OtQJwI3gh+U05GudcJAbAQhsAxuWB13N9oXww/sv/8bimBcfvATVYrB6jenCqZGh/heBGoGz8MbqGHoctj1NgfuzIQuuaKhxAICQQ7ocQVoddDW7vKdexTzbEOXHLsP3jBlyYKIO2BClLRtVErBcJW+HKgPrIm8u923ZC7BoFz5rl8gIzAJ/34dqJ2KL13dgf2hk3Brd3d+YIcttg0an9L8IRESAv765wqVFG8T1TzxeQF9nxINlsJlHIPBLqUQCfPgDl7+1TPvB+AhLB0qwfQby4KBAy8T500oiECsB/giwmvlzLmzz17a3xNlQVmkZK8OyG47AcTBlccVds3ljuFArt8QuO6tfMOTJuctKIhArgS3heK1dCPnKE/9CTqFxRoDV4mOnqwfAaa0o0a2vlJhXp1nxZMmu81QSuxHPNwxmFdiex9C+TItAEQJLFNm5wL5PYN/XCuxf5a4cjMfxURZpcV0AWGAPZ5PT2LgAkFW6CIaftjJekd1fIN8PK8q7VbY8XjdutZG+FwGnBAYZ+XW7kd12zd7T7oYlbzenLgBKJuosu/Xhj9U9t09g+wRnPMpw5xVkwuk7VmktK8OyKwIFCVj1Xj1Z0O+qd2cPhUWaTRcAFtjD2bQ8WVyBMJ8LF2pQS2cGtTalMS3hOSUP/RcPgbmNXOXSw57TS0bO6QLACHwosyuGMtSLnfN7+SyVj+5CIBwPYJE4DkAX7hbkZbMogTmKZtDl/u92uV+o3caEMtRgRxcADUBS+3clo4C47DDnt6ac2MNhkThqmOupK4lAbASsVgGd6BzU+0b+DdAvCSPyAcxy1b0hAez0ZuJKfMgZACknxmiVOB1RSQRiI2B1AcC20HPqZ+Tcp7oAMCIfwOxg2LAq35sDxGdtgnPyOYXHIg21MCqbIlCQgNUFwKwF/a56d87WskgfW50gLILNzabVSYILfNyaAWzOcvi3UZxWZWsUrswmQoDP07BIQyyMdmBz0Q62LXPTD3QBUCZOX3ktYOTOq7A7ysh2aLP3hTbYY08XAEbgZbYQAavBbt5vmVmN6RmjC4BC9dn1zlZTbp5xTaVc56ymF3ld1rRcusotNQJ8KJhFWs/CaAc2raZrv6ULgA5KKbJNdQFQfYG9WL2JXi1YTafq1Rl9KAJtEnirze3K3mxtZOj1mOETEtctO+A28xulC4A2SUW42QAjn3Pp/ideq/XFrQYNGVUpmU2EgNUFM0+yOztluAH8mtPItxd0AWBEPoBZq6kvViPjAyCdysSEqT4J84HXXzNhopeVWAlYrgy6r1Noexj6pQsAQ/hVm9YFQNWEp5nGalQzn+/Qv/rwZEEESiVgeQGwKiLZqtRoimc2H7L4RvFsus7hKfUAdM3O/Y5Wc27dgynRQU55tEqWtq1ilt24CbwN998wDOE42LZ6OFpvYR+GD60u5Nl+PKwLgN6KJY3POE/dInGp2lyS5QIjk3KBrDiTInCPYTR8NsqhhvbrTS+Bf75b/0Hg95zBNFYXAIGpBzRndYKwGnwYEO3npixjtbrA+zx4vRGBLgjc28U+Ze7yM2S2ZpkZdpEXz7vnQFa//unyv/hHFwCkkGb6yCgsqwWILMK1mo+vk79FactmGQTuLiOTAnlwbNRfIct2ihchGxaIoYxdb2YmugAoA6XPPKxW3VraJ45KvLJakc9qQZVKICrTrAjwAmCsccS8cL8BmtfAj2/CJi8ALNOnMH4THdAFgGUxVGv7rWqzb5p7ThcASzalUO0XfNyykgjESOBjOP1PB44vDx94ElwkoC9ci+AiyHqANm/DjGLcugAghTTTaKOwFobd+Y1shza7RmiDPfZ0AWAEXmZLIXBVKbkUz4SDAnky5EqBVSae8I+ELoE8zEL4W5XBKm8fBNaBG5zqYSF2c6WepkeA7Mq04HtZ6nAVX9IEuJAV19CwOHZ6s8leCZ6guWJg2WlRZHg91Jtdi884fmgIpJQ4AS4yYVHBaPPsxNkyPI4ktuL7vxnwVYhpE2BXuNXx08zuE/Bp85Kw8yLnGIgrozazZ/H5jSXFp2wiIPCuUeXj/SUPXV1VFtH/GLFlo7FXlYEpbxEIQGAYbFicANuxydsC34A6nabHrn7eFjwDsmp7W8W3C3xTyoQAn1ffqkJU9f2WiTPmr4Wq2LXK98uJs1V46RPgyfIZqFVdt/yeJ3Het/8vaDWo/iFcvDjgAMINof2h86E3IEt/W9l+Ff5xGqRSJgTOQpytKkVV3/85YcY8AVfFrZ18BybMVqHlQ+A7xsdRO8dab9u8F6nfh+VTtRQpCewN9VaBQ3zGlQiXoBMJJsv7l68kyFMh5UmAv0ZZn0O0R7nb4LTwqR47rGmAaR949xuGNz1sp3jFyW6/nQy53mFoW6ZFoEwCXK1UA1rLJNo8r2PxFW9pKGVEgCdhPoHL6ur3Q9hObWGg3xryZDl+D1ISgVQIzIxAXoSs2qgc7L4Avrr3n8oR02EcvBdvWclv6NBfz5svA+c4Z9iS5wqeAck3EeiCwA7Yx/KYSt02ZzQoZUpgX8RtXcFTWBiIt8tuN2Y5GvY5elpJBFIjcBMCsm6nUrR/D7iqzUjtaOkgHt6z5sMfLCs3H0w0BIo5caqPJUPaPi9mgPJdBPogsDy++wCyPsZSsk+eXO5YKXMCdyF+64rNNQlivQ+1Mnyf6IDhlvBBSQRSJXAIArNup1KyT55KIjDNwWDgoWJfDD9i646aCz5zEI01v3HwodOVybCLkghEQ4C32XQroJy2hrcrOQhcSQSmWQgMOC/f+iRG+7+MqDxmg68eek/I7ZKIuMlVEeiWwGDsaDlzyUMbWdQHTvcjRyUR+JwAH8FZtGKVtT/X0ffeEzAAPv7LEbPN4IuSCORAYFMEaT3bpqy2LnQ+n4DdjjlUEsXYGYGtsXnoytiXvd/BH69dVAvAN46e7cv/kN89C1+8XzDBRSURKI3AQcgp5DGWiq0fl1YCyigpAjzZvgR5qug3wJ/5IU9pdTjzKuSJ0w88AZIvIhCIwDmw4+k49O7LWYHKRWYiJXCgwwPqdfi0sQOeM8CHIyBvU5H44BE9/MdBBZELwQnwR4v1QmbeT/o1/64FK7ZhSiLQlMAs+IaLydQqjZdXrlNwATQfZJHWglE+N8ELj3o/TrUAIpsi4ITATPDjaqj+mND7KXncBT4csKwkAi0JHIktvB5AXDDocKj+udstAyqwAZfVvQKyXiipWXnw1/+CBeLTriKQAgFOf30Ianac5Pz59eAyawqFrBjCEODo9jcgzwfNO/DvWGgoVHbqhwx3hm6EvJ74a2Xzq7KDV34iECGBueHzWKh2XOj1MxZ/BRO2Z0oi0BGB72LrGA4inqC5oAWfgLc01G3irYXdoD9Ascwx5sqD3gZIwiUlEQhO4ARYjKG9Cunj+WBS+J6/phYFr8suDM4ILx6FlnHhTftOvIZN74Q4Le4paCQ0vkecN8xfCoOgeaCloBWhlSD2JMRW14+Gzz+HlEQgZwK8COZKnOrm/qwWcEG3o6DjIV5wKIlAVwQ2wF7eu8BDXlF7ssULHN73VBKB3An8GgA8HZuWvrwJFpvkXiEUf3kELkRWlhVatnvnr4O8vDqunOIlwAW5OBBW7cQ009wCDuShJAKlEZgXOfGqUgeYHwYcp6AkAiIwzTSnA0LubdMEMPgR5HXVVNXTyAlsA/9zP8i8xP8qyoLjF5REIHcCgwHA26JcodsJrn+waO4VQfFXT0BLbtpfBPEhHh5WRKy+tsmCCLQmkHOb9DzwfK01Im0hAuUQ4NoAj0Ohr3Bl7wvmx5RTlMpFBKInsAQi4Kye3NoHznbgFG0NAAYEpbAEOM9ei23YNDr/AvsZwha3rImAWwK5DU5+GCWxC6T7/G6rZB6ObYcw2RWd25W3ZbwvgrcW/Mnj+FKUrQksi004193ymAxhm7Mb/gR9FYptjRK4rJQqgR8jsBAHgGx81uPCxYqUREAEPiPwR7yk2jbwwoaPQN8Dmh1SEgGXBM6AV6kehF7i+hCMN3JZ+nJKBGwIcNXOlHogGcuT0JnQzhBXKnWVdN/RVXG4ceYAeMI1AnZ041FajnAFxr2hm9MKS9GIQCECXPp6ukI5FN+Z46AOghaHloQWgXiLjovw9LYcMQcr8hHrFKfxcgQ/9RjEJxiOg5REIDoCM8LjKyEvv5hT8YPdgOwCVBIBEfiCwOp4ywtj6+P8Z1+41Os7jtAfCM3R67f6UAQSIsBHTV4DWR+UqdjnyX/3hOqHQhGBsghci4ysj/O34IPuzZdVosonCQLsCeDytNYHZ+z2efLfNYkaoSBEoFwC6yA7D8f3YeWGpdxEIA0CvC93GuThII3VB3ZvatBfGseDoiiXwI3Izvq4fhM+9HaPv9xIlZsIRExgH/ie4wpdZTVOHCTE+4dKIiACnxFYDy9lHV9F8jlYBSICItCawObY5F2oyMGW877ntUasLUQgGwJcBdO6PXgNPsycDXEFKgIFCSyK/e+GrA/cWO3vUJC/dheBFAjwx4SHY/h7KcBUDCIQkgBnCJwCeZi646ER6cSHUeDGdRaURCBnAvci+E6Omyq2fQk+sC1TEgER6ILAptjnZaiKgzPlPK/ogrV2EYFUCGyDQDwc399JBajiEAErApw7exaU0jKeIRqn3awKTHZFwJAAH37DVfJCHGN92XgePnCas5IIiEAJBFZDHndBfR10+u4LPhxMObgE7spCBGIiwCXGPbQDWpQrplojX6MgwDUD9oJGQh4Ocu8+XAdOehwoIChlQYDtw+OQ9XH5FHyYPgviClIEDAjMBJtcN+B1yPpg925fo5ANKqhMmhDgapgejkc+nU9JBESgYgIcYbsHxMdiejjwPfowEWyWgpREIGUC/MX9NGR9DPJJfeyJUBIBEQhEgAccR/7y4UKTIOtGwJv9O8FEXZKAoJQsgT0RmYfjbrtkCSswEYiAwELw8QjoEchDg+DFh0MjKDu5KALdEOBo+xch62PtfvigMTfdlKD2EYEKCCyJPPkUrtugDyHrBsLS/geIfyVISQRSI7AvArI8tmq2v5Ya2CLx6EqoCD3tWzYBPo1rQ2h9aHWI0woHQmUmrlzIEcBchexuaDnoYMhLehiOrAV95MUh+SECBQlwHNBz0CIF8ym6O493PnpYqYeALgBUFbwTGAoH2UtALQEtAA2C5oG4ANEAiIkXDxxMx16E96AxEJfc5WM+X4Ge6REHIb0P1dIMeMOGgRccXtJxcORIL87IDxEoSOAA7H9qwTzK2H1TZHJjGRkpDxEQgXQILINQeNFQ6ya0fuWKiuulg1eRZEygP2LnY7Ctj6l/ZVwGCl0ERKAFAd4GsG6k6u1zmdJa70YL1/W1CLgl8CN4Vl+vrd5v6JaQHBMBETAnwGmKt0BWDVRvdj10m5oXjByIlgAvYHkLrre6HfKz66IlKMdFQASCERgCS2OhkI1TX7Y4YHELSEkEYiTAcSx91e9Q360dIzz5LAIiEJ7A3jAZqmFqxw7vn5Y9EyI8VVnMjcAcCPhtqJ06XuU2V+cGXvGKgAgUI8BGo8pGqdO8zy8WjvYWgeAEfg6LndbzsrdnD9oawSOXQREQgagJzAfvPdy7rG8Qd4yaqJzPicDcCNbDrbTLc4KuWEVABMojsB2yqj8BW78fDX/mLy885SQClRE4ATlbHy+cSqtVNSsrYmUsAukTuAQhWjdk9favSB+5IoycABfoGgfV11uL9zx2lURABESgawJzYs+RkEUD1szm7l1Hox1FoHoCv4KJZnU31Od82igX91ISAREQgUIEuHwoBxOFarxa2XkXvgwuFJF2FoFqCHCZbg8rap5XTXjKVQREIEcCZyPoVifmkN9zPXM9xyPHmug75tMdHCd8iNZivjHJOxEQgZgI8EFDfJpZyJN8K1v7xQRQviZPgL1SfJx1q3pb9fe8WFcSAREQgVIJrIvceG+x6gas3fz55MOlSo1QmYlA9wR+h13brbtVbfchfBjSfQjaUwREQASaE/hffFVV49VNvnfBn+mbu6tvRCAIgcVhhV3v3dThMvfRszOCFLeMiECeBPoh7EehMhutonkdlmdRKGpHBC50cEy8Dx8WcsREroiACCRIYBXExK7GoifusvanLysnyFkhxUGAt6E+hsqqz93mw945JREQARGonMDPYKHbhqqK/Z6AP/0rj1oGRGBqApfhoyrqdCd5ToAPXL5bSQREQAQqJzADLNwDddJIVb3tcZVHLQMiMCWBFfAvl9ytum63yv9/pnRL/4mACIhAtQS40piHRU9qjSMb4vWrDVm5i8AUBP6G/2r1z+qVC2PNNYVX+kcEREAEAhD4PmxYNXy92X0B/gwIELdMiMBqQOBhhcyjVBQiIAIiYEFgOhi9GertZGz12WkWIGQzOwLXOqj378AHPq9DSQREQARMCAyBVQ/PPq9dcPBX2RYmJGQ0FwJfRqC1+mb5qimwudQ4xSkCjgnsBd8sG8JG26/Cn4GOecm1uAnwWRSNdS70/6Phw2xxY5T3IiACqRD4CwIJ3Qj2Ze+CVMAqDlcE1nNSz3/gioqcEQERyJrAvIj+Taivk3Lo73bMukQUfBUEbkWmoetxo73X4cMsVQSnPEVABESgWwJfx46NjZXl/+wmnb/bYLSfCDQQ2Az/W9bnmu39GvzSvyIgAiLggsAf4EWtofLweqULKnIiBQJ3O6jbL8MHPpNDSQREQATcEeC0pJGQh5N/zYc93FGSQ7ER2NpJnf6v2MDJXxEQgbwIbIpwPSySUrsAeBf+DM6rCBRtiQSmRV73QbX6ZPU6Aj7MVGJcykoEREAEKiFwFnK1aih7s8upW2zIlUSgUwI7YIfe6lToz9ST1WnJaXsREAETArPC6rNQ6EayL3v7m5CQ0ZgJcLXLR6C+6lWI73gs8SFcSiIgAiIQBYF14OUkKEQD2Y6NifBlqSjIyUkvBL4FR9qpW1Vv800vQOSHCIiACLRL4JfYsOrGsZP8OZJ7+nad13ZZE2A9eQrqpH5Vse3j8IE9EUoiIAIiEBUBTll6FKqiYew2zyOiIihnrQjsCcPd1rEy99vOCoDsioAIiEBRAl9CBh9CZTaKRfL6CL7wca5KItCMwIz4go+XLlLPytj3AfigwavNSkmfi4AIREHgp/CyjAaxrDyegD/9oyAnJy0I7AujZdW1IvlsaRG8bIqACIhAmQQ4gvkeqEhjWPa+x5cZoPJKhgDn2o+Ayq5vnebHtQf06z+ZaqVARCBvAksj/PegThvCqrb/BL6sn3eRKPpeCByAz6qqc53ku0kvvukjERABEYiWwEHwvJNGsOpteZ93QLQ05XjZBHhb6FWo6nrXKv87yg5M+YmACIiANQFOZ7oZatUAhvz+dGsosu+GwA+d1M1hbojIEREQAREokcDCyGsMFPIk35ctPrfgqyXGp6ziJMDVK9+E+qorIb67Pk588loEREAE2iPwbWwWojFt1wa7fQe257q2SpQA14dot75Uud3aifJVWCIgAiLwOYG/4F2VDWmneV/4uWd6kxuBORDw21Cndabs7a/JDbziFQERyJPAvAjbQ5drfSO+U55FkX3UR4NAfT2weM9bUWtkXxICIAIikA2BryNSi8a2mc3R8GdQNvQVKAnMCb0DNasToT5nj5iSCIiACGRF4GJEG6qRbcfOlVnRV7BcEKqdelHlNlyTYmUVhQiIgAjkRoD3X0dCVTawneY9PLdCyDTeeRD3OAd179JM+StsERABEZhmEzDgPdBOT9RVbf8ufFlU5ZI8gf9zUOcmwYdlkyetAEVABESgDwJn4ruqTujd5HsT/NFa7H0UWORfLQD/J0Ld1I0y9zk/co5yXwREQAQKE+BCLM9CZTauRfM6oHBUysArgdMc1DU+mnpxr4DklwiIgAiEJLAOjLFLtOiJu6z9+QuRDzFSSovAYITzAVRWPek2n9+mhVXRiIAIiEAxAidi924b1Cr2ux/+zFgsJO3tjMDv4E8VdaWTPD+ED0OdcZE7IiACImBKoB+sPwJ10phWve2RpkRkvEwCQ5AZT75V15lW+f+mzKCUlwiIgAikQuBLCMRDI11rxD+GP6unAjfzOC5A/LVytXp9Hz4slHk5KHwREAERaErgJ/jGqoHuze4T8IfPi1eKl8BScJ0Xc72Vb8jPTooXoTwXAREQgeoJzAAT90AhG+ZWtk6oPmxZqJDAZQ7q0wT4MF+FMSprERABEUiCAEfge5irXbsw4JKtGyRBNr8glkfILL9aWVq9HpcfekUsAiIgAt0ROBC7WTXWvdl9Ef7M1l0o2suQwF9hu7fyDPnZWPgwlyEDmRYBERCBqAhwNb5/QiEb6la2zoiKoJxdFQg8LDV9tIpCBERABESgMwILY/MxUKsTc6jveTL5amchaGtDAn+H7VB1o5kdPnKYjx5WEgEREAER6JDAt7F9s8bV4vPX4I+6czssRIPN14BND7/+DzeIXSZFQAREIBkClyMSi5N9M5sXJUM23UBucFBnRsMHjRtJt44pMhEQgQAE5oWNUVCzE7LF5zsFiFsmuiOwnpO6ckh37msvERABERCBegLb4h+LE30zm/x1N6jeQb13Q+BWeNKs3EJ9/jp8mMUNETkiAiIgApETYNd7qAa8HTtXRc4zRfc3dVJH9k8RrmISAREQASsCc8Dwy1A7J+dQ2+xpBUN2eyVwNz4NVfbN7IyED3y4lZIIiIAIiECJBDZBXh5Gd9cafy7ysmiJ8Smr7glshV1r5WL5uk/3IWhPERABERCBvghwQR7LBr7R9u3wZ7q+HNZ3lRPgwlH3QY1lE/r/EfBhpsqjlQEREAERyJQAB1c9C4Vu3Puyx6WLlewIbA/TfZVPqO+G2yGQZREQARHIg8CXEeYkKFTD3soOn/XOB88ohSfA3peHoVZlVPX3vCjl0yyVREAEREAEKibAx/RW3ah3kv/98GfGimNW9lMT2AUfdVJOVW1LP5REQAREQAQCEOBI60egqhr0bvL9SYC4ZeILAtPj7VNQN2VV5j6PwweNA/miXPROBERABConsDIsfAiV2ZgXyetj+LJ65VHLQI3AcLwpUl5l7csxCEoiIAIiIAKBCRwJe2U15GXk8wT86R+YQY7meLvleaiMMiuSx4PwgbMQlERABERABAIT4MArDwvA1J9ETgzMIEdznG9fz9zqPdcfUIqEQApXarOCNZ8yRc0OTYQ+gjgqejw0DvoEUhKBXAgsjUD5S8zL+us8/jaE7oSUyifA8R8cdT+4/Kw7yvFebL12R3toY1MCMVwA0Ec2aKtBS0KL1Wl+vG812IQXAnx62kjoNehFiI0j9QLEK2UlEUiNwAEI6FRHQfFY4xgFXqArlUuAa+3/ptwsu8ptc+x1fVd7aicR6CHAE/q60FHQP6AxUFXdWe8i75ugw6FVoBguiOCmkgi0JMC6fCNU1bHTTb5ntvRaG3RKYGbswB823ZRHmfvc3qnj2l4EagRYifmI099Db0JlVsxO8uJjK+nDFlCrngVsoiQCrgmwS5gXuZ0cA1Vuy+cW8FeiUnkEfoCsqiyzdvPesLyQlFMuBNi1zwVM3oLarWihtuNVNX1bAlISgVgJ7AnHQx0z7djhcTVXrDCd+c3xT5Y/mGrlfYMzLnKnTQIWXd78Zf0NiPet2NXvPbGS81bE/0B3eXdW/olALwSuwGfsYfOS/gBHdivBGbYlHAe0YI/mxGttQPDAnveNy9FygDDHIfDJhR/0vH8brzyR/gdiL+AEKIbEW5fHOXB0HfhwtwM/5EKHBEJeAPBg3Rn6KbRsh3562ZzjBY6BbvPikPwQgTYI8CT5GDRvG9uG2mQnGLq8DWNsN9gLt0yP2GvI90MgxsXV78pO7yHDEdAL0PM9r8/h9VGIFwoe0hxwggOarXtTroUPW3oAIh/8Etgerj0B1bqMYn+9DrEs6Re3PBOBqQjwGPR03I2GP4Om8nKaaRbBZ7w4+CV0CzQO8uQ3ewh40jseIlNehFiko2DUmgvHdHB2lpII9EpgKD79O2RdUauwz+7DX0AzQ0oiEAOBC+FkFcdCt3leBX/4S/br0GnQM1C3eVnu9zT8PgcaDi0EVZ3mggEPgzv/WnWgyj9OAjPC7cOgiZDlgRnCNrsJh0FKIuCdAO+RvwKFOC7atTHJmT/t+t1sO/4q5hojHDPEe+NV3KLgff9m9kN9/gl8WBFSEoEpCAzBf/dCoSqiBztsxI6CqjjYka2SCJRGYFPkxJOUh+MmBx84sPAMaAOI4xmKpnmRwXjImt1lRQPR/ukRYFdelQv3WFf6VvZvRvwLpFesiigxAqcjnlZ1Wd+Xz+hVcP8VVOSX80kOyo4/eDgQU0kEJhPgL19WbP2y+GzZYT0CVQeGZwKcP85R7TrJ2zG4E/z3gPpD7Sb+uOAMBety41gSJRGYTIAV+G+QdaX0ZJ8jl9nVqiQCXgnw/nRq9989tQHt+sIeU854WLCNisL1/tvNt6rtPoIPi7fhqzbJgAAHFXFOfFWVLeZ8PwSXXTKoAwoxXgKcyhbzMZaS72wv+Mt6uSbVaTA+58wj65h/28Q/fZwZgUGI9xHIukJ6ts+Rst/JrF4o3HgI9IOrOoZ9tWFsM/4EccGj+nQ2/rFu63iRsmi9U3qfJ4HZEfaDkHWFjME+u1l3zLOaKOoICKwMH9mwx3As5eRj7UJgCMqG8lBGXKtBKXMCXPjmdiing7ForO+D14aZ1xuF75fAEXCtaB3X/tUw5FoqXMbZmi8HH7YzTgGbKaVKgA/W4Opd1pUxRvtcuWulVCuG4oqaAGfx3A3FeFzJ5zDl9quoa7icL4XAyWokCjWSL4Aflz5VEgFvBJaCQzms3KkLhs4vGCagblg988DbcZKtP1shcs3z7/zgaWxw/pxtDVLg3gnwEd2N9VX/iwlniyhlTIAP9XkHUmNQDoPvZlyXFLpfAtPCtZshHediUKsDY1Ef5vZbZeVZEQLtrE09Ewz8EeKcf6VyCPB+GkdfK4mAJwJ7wZk1PDkkX8wJ8Lbv2+ZeyAEzAhohXM2vgX+jRNu5ADMreBnOhsA8iPRvUO1Xn17FgnWAvb4DIaVMCQxB3BoYVF1jsE+m9Uph+yEwDK68AemkLwaNdeBIP9VUnlgQ0JS/ahsFdq3x15eSCIQmwPv9B0EfQY0Nv/4Xk9GoF7NBSpkS2AZxqyGonsFvM61fCtuOwBwwfSWk41sMmtWBH9pVT1kORYC/AnpLvDfN1aeaPZiit330WXcEOLVyeejp7nbXXiLQEQE+ye1qaNmO9tLGOREYhWBZT7j6n1LCBJoNQtsOMevkH6bgWQaHhTElK5kTWBfx3wXp5J95RWgR/nH4Xif/FpBS+LpZD8D9CG61FAKMJIaP4edS0EuR+Cs34yOwO1z+PTRjfK7L44AEXoEttkV89LBS4gS4tn9j2gIfxHLy54lzZI/ewiufmNUP6g8tDA2FYli/gI3yj6D9ICURKJvAD5DhSVCzC/6y7Sm/eAn8D1zXyT/e8ivs+Y3IodnAEOvPeb+c8+c5PYXdmTNDrdJi2GBX6FLoXcg6hmb2+cRArbcNCEqlEeAJ/0SoWZ3T52JTXwdeRF1RD1Fph198GQ2Gy3wOdX2l8PB+PHziilRLQ0USLxj2hB6EPMTV6ING3qJglEohwJP/GVBjHdP/YtKsDny7lJqnTKIl4G3Vv0kg+RtovpKJsnHcEXoeanYwWHz+SMlxKrs8CXBgKaeXWtRh2YyT+zOoL73dEs7zCMo0ak5F83IAPwlf1qy4HGZB/uxZ4K0FL3F/qeKYlX3aBHjy52A/L/VZfsRRFt9K+7BQdL0R4C/hWloLb+6p/WP8ynXJh0Ps+g+RdoCR86EBIYy1sMEHBR3SYht9LQLNCJyGL3IbTPoRYubo9ZegNyGusEmNg7iUORMHCPMWIBdB4vr2fF0AWhDigGGOv+HFU47pCQS9EsQfQkqZEjgBcXu4Wj8TftRfmIQqjjVgaIwDBq/Dh+lDBS07SRE4BtF4OIar9OE5xHgJxLUzvgYtCpVxvHDwG6e/bQNxRs650MPQx1CV8XjI+07EyJlTShkT4Oh668rI+5YWJ/9asa+ON+x1sObA3hglEeiEwMHY2LreVmH/WcR1KsTFyQZBoRNvE64DcSrl1dBYqIo4rfO8CnFpBgAg5JjYJcYBd5aV8GbY91ABt4cf1mMCjoQPSiLQLgEOaPU4e6eb9oTH3l3Q96ElIG+JvQ28QP85xB6CbmL0us9FiCfX2yAIPd/0dYRuWSlHwz7vwXlJJ8MRSx63eAEhP9wTWBsevgdZ1tcybHMU+o+hwVBMaSic/SH0KFQGB+s8fh0TfPlaDoHfGFfeb5YTRmm5sNuP9xqtDkYOWJq1tGiUUaoEePLhoDerelrULu+vc4GuYZDlrT+YLyV9CbnwBPoOVJSN5f7/XQoNZRINAcv7/+zu85jYrWp5EG7hEYp8ckOAF6mxdkHzPjqXJo7t1367hc+L932hxyHLNqRb27ww2wRSyoAAr7wtB75t7JQxuTwAdXsQFd3vPtjeD1oOUhKBRgK8X1u0joXen+3MsRDHHOWQ2IZsDfFYDs26qD32YnBWhFLiBBZFfEUrS7f7P+ac7XBDNvVMR8EPdpXyV4UOSkDIPB2A+Ovrh/f3H8Ffdo3Pm3G5sUfvQch7WdX7x3EN7GlSSpgAK2Z9oYd8f6Bzrqz87xryaVYWr8En/gLcG1oMUsqHwOoIlWNEmtUNb59fA1+Xzqd4+oyUI+yHQ69A3sqpmT/n9hmRvoyewMFGlZHTfRaKgN4lRnyaHZC9ff4SfDwf2gNK9b4qQss+zQYCloNTe6t7zT57Fb5yUR2lqQnwh8WJEHtGmvHz9Pm3pw5Bn6RC4CyjSsjupRgST6qeDsZ2fOFDjs6BdoUWhJTSIHAhwmin/C234YU9V/OcPQ3klUaxEnK/B7Isr3ZsT4CPHtdkqLRwcsn8L0YVkFMPY0iLwsl2DhLP2zyNGNgo7wx5Wm8B7ii1SYBTZT3XMfr2BsRbikrtE5gem/4E8t4bcCd8pK9KiRG4GfFYNCz/FQlHjuSNfV5vffnyFxqnJ/ECbAdoHkjJNwFetI2G6svR23ve6895kF/RGsRnkTzrvIwPKxqk9vdH4CGjSvdlfyiaenSHEaMQjTyXkOV88pMh3rOdE1LyReByuBOiLnRjg/WHv2B5oaxUjMAc2P0KqJtyCLEPB58uXyxE7e2NwMtwKETlabQxxBuIPvz5kxGjRmYh/p+EWO+HuFDLlhAHninZEdgJpkOUezc22DOmLv9y6wYvpI6AvD7b4Xb4pou9csvcNLfxsN7NwV90n5jml55mxKgo4zL2r10QnAIGPBnxV4pSGAK8+OJo+jLKsew8RsCvZcNgyNLKdoh6IlR2uZWR37ezLJFEg7YYfML70DFdRXLKThkHTgp5sL7wlsgx0EbQzJBSNQR+hWw91pn74JcGk1ZT5vW5roN/PI79oE8aO1RfUhG/fxu+WzQys0bE7AwjRhbl0qlNrhvOWwYnQJtA/SGl4gSWRxYWF+etyp9dwJriV7x8282BvSxc+KtVuYT+nr2iSgkQeBExhK48tLdIROy4DK8Foxht8tG0N0JHQutCM0JKnRO4Cbt4K//r4FNMt+46p+5zDy7/7W31QF74L+MTl7zqhABHgFs0NF/pxEnjbfkL14JRCjZ5H/MG6GiIPQQzQUp9E9gSX3sre17UqXen73Kr8tslkPnrkKd6cWWVASvvMARuM6pU3wsTXmErXPxinBEjTwd7Wb6MBUvOGT8EWhXS4iKAUJfI4zGoLN5l5MNuf/3yrysko7crw+4YqIwyLSuPDY1YyGxJBP5mVKHYrR5DWg1OlnWwKJ+pWbJB49zng6CVoJgGh8Ld0tNeyNFTPXkQ/sxeepTKsFsC62HHDyAvdeTWbgPRfj4IcL63RWUaBbvT+UDQpxc/NuJjUSYebHKE8eXQftByUE6J4yWsxuT0VvYj4c+CORVAJLHuCj85k6q3MrP4bFgk3ORmLwT2wWcWlYY2N+rFH28fPWDIx6pcPNnlheJl0L7Q0lDKaW8E54U9b3uxR0bJJ4Fj4JaXunKzT0Tyqh0CHIxnVZEuaMdBw21WMGRjVSbe7XJK1MUQT5aLQakk/vp/AfLAn78ut08FbKJxsPeUszI81Bf6wBk/ShESWBg+W1Uiri1N+17T+XDMio3stsf+ZZQRy2k4NBiKNe0Bx72U+fGxQszM73kR7ytO6s1fMmOfTLgcdPWOYSXyuqAEp91wrquXRll+tFcW/BV9DsT7pDHdv37ISV27BX5MDynFQYA9uOyxsW4fJsGHoXEgk5eNBK7FB1YViCfZLzU65OB/TlWzYiK75bHnBcGFEMe6LAJ5TBwL46HM+UMg5l4Uj2UbwqczndSfX4cIVjbKJ3C4cQW6G/Z5D9RL2hmOeGiQ5UP55fAEyvY30A7QPJCHdBWc8FDWO3mAIR86JsBpmrwVZl2HuMbHrB17rx3MCawPD6wrzwnmFD5zYHG8vOuAh3V55GKfPQRnQzz5zQWFTuw2/QSy5s2ZFkrxEtgYrnu4FbBnvAjz9bwfQn8fsmyEWHl3Ny4CngAeN+ZgWQa52+Z9TC77zLUxuBwvH8dbdToWBqy584Fgerpf1SVdff7nw4R1Xbqj+jBloQoCluMAapWWTz/buorg2siTjT0rb80XvYoFx6fcA7F3anOo7O7NGZAnpzVa17U94YNS/AT4A2YMZF2flokfZX4R7Omg4rDi8iJgDyhkmg/G+MvP+sCRfd9lwLrJi8RjIHa5zgwVSdtgZ+sy5wXOtEWC0L6uCFiP52J9Ps4VETnTFoE5sZWXNaZ5O+AUaKa2PC+20RrY/UXIuiGW/fjKgD0EvHBkD8EmUH+ok/RnbGxZ7jzO1u3EYW3rngB7qd6ALOsV21NdVLqvKlM76G3q231wcdWp3SzlE/564y85/qqzPFhkOx3+76Eu3Qj9BOKJta+ZLQPw/UTIsvz/APtK6RHYHyFZ1iva5g8rpcgIfAv+WlecRvscmMVR2kOgMhLvuw6H9KvfX1k3ln3s/09APfsndBi0FsS6V0u74o1lfOy9WLLmjF6TIsCe0xGQZf06KSmimQTDiuNhUFJvFZe/1C+FvgrVN6T4t600BFvxl5nnE//58O82yMutmN7KQZ9137COQ9myl+0Q6FbIkuU5sK+ULoE9EZpl/RqRLtp0IuvtPs2RCO9Y5yFynj5PlHdAT0Kcy83Rr+Mhdu1zRP+CEEejrgJxwNbykOfE6YcrQ7wvyxjWgYZBX4HWhPrqTsbXSiLQNgH2qi0FqZFuG1l0G/LH3EjIcnrnCrD/RHTkMneYU0nYdWl59Zij7Z37qHez4LtNoKOhG6APoRwZKeZyyp09aUrpE+APOctj5kfpI04zwjONK45lpbWwzV6M6TqoSlz6c0uI99kegPiLzsJv2YyTuwZo4YDJIA1GjJZtwy0ZME4yRHafqxcgXOPOAWFF0kDsvC10MvQIxNsIOjmLQW91gLfNlPIhcCVC7a0ehPiM47Z4O1YpQgJHw+cQlSR3G/wFP33J9WMe5MeH3ZwG8R5c7owV/xd1YA/UB6V8CGyBUC3rP+0rRUhgAHx+HbKsPKnb5kNg1g5QNzgQiGMMzoKegVLnqvh6L2M+7pcDTJXyIcBbiy9BVsfE8fmgTi/SbxtWHKsKG9Lu74yqDG/x7AadA3EGRciYZcuO9+koa6X8CJyCkK2Ou7vyw51OxJwmeK1h5bGqtCHsvgWu7Kr3kDhYaDh0PvQyFCJ+2QjPeQOUrVJ+BDZCyFbHG8cBqNcp4jq3EHz38IQpqwpclV3rRx/3VSUXx5d7QxdDXheGqqpcUs2X5djJTBNsrpQIgRkQx9uQVd0OcZszkaLyGQZPVlaVJ0W7F/os5qZeLY1v9oUug0ZBKZZJ6jGdinJTypcA2xyrOr5/vtjTifx8wwpkVXGrsMtBeBxgGXPiqoo8qC+HRkNVcFKe5XLVaGxU1IwTZwVZHVPnZczddei8x99u6o8Nb4XWancHbTcVAa7g92Xooam+ifcDdiuvCA2DNoJ4n5mPllbyQ+A9uMLxJu/7cUmeBCbA+ficBVL2lON2wngUG63czobaxjcBjh7XPeHurqQ/Bbvhvou3FO/YwKwGHQJdA/EBOFa/PGT3M/YcyKskAlwkzOKY4MPNOA5BKQECXEZUjXrnB9LPEij7bkLggc9eo8Ogf0ITIItGKGebZK8kAmcDgdVxsJTwp0NgHYQy3rAyWVXibu1yvr3SZwRqPQSH4t+rIV1MVt8or6fKJwIgsBfUbRtWdL9tVAJpEdgY4fDeYtGKkfr+PMmp+6t53e+HrzaEjoZug9hdmHqdCBkfx51oHjYgKE2zHBiErHv1tnjBr5QYgc0Qj3oCmh9UfwSfmRIr86rD4cmKF5fHQndAXEikviHR+854pDTgFFVBqQABDth9F7I4hs4q4Ld2dUxgVfj2OmRRqTzb/D2YsLtbqRiBWbH75tAJ0D3Qx5Dncvfm2wXgpSQCNQLsZbOoo3+vOaDX9AgMRkiPQRYVy6PN/wOLTqZYplcjqotodmS9JXQS9AD0CeSxDnjx6RDwURKBGoHz8caibvL8oJQwgTkQGxeGsahcXmxyTMQeCZexx9AGwqltoZMhTnPidEsv9cGDH18FDyURqBE4Cm8s6uXYmgN6TZsAT4A5TvUaibg5RVLJlgAXPNkE4i2D+6HcLwiWAQMlEagRGI43FhcAtDlLzQm9pk2AS8VaLTphUbnZ8zF32kUabXTzw/OdIQ5CegayqB9WNnnxoxkAgKD0OYEN8M6qPg7+3Au9SZ7AjIjwh9B4yKrCVW33DcS2PaQUDwGuZrkbxLUZXoCqriOW+b+J+JREoJ7AIvjHqk6uUu+I3udBgBXuL5BVpavCLgeenQsNhJTiJsBfJcOh86GXoSrqi1WeGniFAlWaggBnJn0KWdRJ3ppTypQAVw+8EbKoeGXa/Cdi0JVsupV4cYS2N3QxFPtzL25FDEoi0EhgIj4os01sN68dGx3R//kRWB8h3wy1W2m8bHcXfP5KfsWVfcRLg8B/Q5dBoyAv9bEdP9jzpiQCjQT+gw/aqT9lb7N7oyP6P18CbFhPgMZAZVe0svLjMqp/gtR1BQhKkwkshr/7QKwXo6Gy6loV+ZwH/5REoJHACHxQRX1rled/NTqi/0WA07bYoPL2gJdV3rh86uEQR5AriUAzAlxadWXoIOhK6B2oVSMY8vvfwh8lEWgk8Dg+CFkPa7YOaHRE/4tAPQFOpdsLugoKuWY1LzzugQ6DloCURKAbAhxgtRp0CHQNZP2kw9/AByURaCRwLz6onZRDvnJWmJIItEWAjSkH2x0Isbv1KaisB8NwetRN0C+gzaABkJIIlE1gBmS4FsTxAyEb2pqtX5cdkPJLgoDV8wB4YazkiAAbKK+JU+0e6tGpPU5ybQH+Ql8GWgiap05z4H19PBPw/9sQxxi8BY2CnoW4GAy7apVEoGoCk2CAv7Z4scnFiEInHi9KItBIYObGDwL9z+mHSo4I1J8wHbnV1BV21bMngFISgVgIfGDk6ExGdmXWNwGrHk/+qFNyRICDmJREQASqJWB1AdCv2rCUe6QEZjHyWz0ARuCbmdUFQDMy+lwEyiPA6aQWibfFlESgkYBVDwCflqrkiIAuABwVhlxJloBVD8DcyRJVYEUIzFpk5wL7ji+wr3atgIAuACqAqixFoIGA1S8fXQA0FIT+nYYDQ/sbcdAFgBH4ZmZ1AdCMjD4XgfIIcMVAizS/hVHZdE1gEUPvODNLyREBXQA4Kgy5kiwBTkG1SHPBKFfaVBKBGoGhtTcGr5yOreSIgC4AHBWGXEmWwFhEZnUbYEiyVBVYNwQsLwC4AJuSIwK6AHBUGHIlaQJWvQCLJU1VwXVKYEinO5S0PVdx5fLuSo4I6ALAUWHIlaQJWF0ALJ80VQXXKQGrHgDWfy5RreSIgC4AHBWGXEmawBtG0a1kZFdmfRKw6hF63SeOvL3SBUDe5a/owxF4PpypKSzpAmAKHFn/wymAVvXhxazJOw1eFwBOC0ZuJUfgaaOIloZdrQhoBN+Z2ZXhj9UywC84YyF3QEAXAKoGIhCGgNUDrHiMrxUmRFlxTmBtQ/90AWAIv5lpXQA0I6PPRaBcAlY9AIxi3XJDUW6REljT0G+rW2CGIcu0CIiACHxB4DW85Ujo0LrtCxf0LmMCzxrUPdZ1PgVwzoy5K3QREAERmOZGMAh98qc9zsHWOIC8K+C8CJ8nYov691Le6P1Gr1sAfstGnqVH4D6jkDj6e2Mj2zLrg8BWcGNaI1ceNbIrsy0I6AKgBSB9LQIlEri7xLw6zWrrTnfQ9kkR2MYwmscMbcu0CIiACLggMA+8sOqGfQe2Z3JBQU6EJjAzDPJJfBbd/7Spi8/QJS57IiACLgk8B6+sGuItXRKRU1UT2NawzvGCl+MPlBwS0C0Ah4Uil5ImcJdhdLsY2pZpOwKW3f+c/jfaLnRZ7ouALgD6oqPvRKB8AneWn2XbOW6PLQe2vbU2TIEAb/tYdsFbjntJofwqjUEXAJXiVeYiMBWBf0z1SbgPeC94t3DmZMkBgR3gg2UX/M0OGMgFERABEXBD4HF4YjUOgCOyraaDuSmAjBy53bCusY4vlBFrhSoCIiACLQn8EltYXQDQ7uYtPdQGKRBYHkFYzTphPXsiBYgpx6BbACmXrmLzSsDyNgCZHOIVjPwqlcB+yM2yt+eGUqNRZiIgAiKQAAGuzDcWsuoF4K/CVRLgqBCaE5gdX42DrOoY7W7S3D19IwIiIAL5ErgUoVs2zlfmiz6LyH9kXL/egv0ZsiCtIEVABESgQwKcmmV5AUDba3XoszaPgwAf/MQTsGX9OjcOVPJSBERABMIT4G0ALpBi2UjrHm34cg9h8RfG9Yp12nLtgRCMZUMEREAEChE4HXtbXgCooS5UfC535vMmrO/9vw0f+rmkI6dEQAREwAmBdeCH9QUAl2pVY+2kQpTgxq8d1KnTSohDWYiACIhA0gQ4RYsnYOuLgMOTppxPcEMQ6vuQdX1aMx/kilQEREAEuifwQ+xq3WDzpLFU9sUQQQAAIgVJREFU9yFoTwcEeDF5PWRdl550wEIuiIAIiEAUBPhwnomQdcN9K3ywXDQG5pUKENgL+1rXIdr/foEYtKsIiIAIZEfgbETsofE+ODvyaQS8AMIY46AOjYcPnIKoJAIiIAIi0CYB6zXbaxcfH8DfL7XpszbzQ+BvcKVWhpavnNWiJAIiIAIi0CEBPjbVsvGu2X4Cfszaoe/a3I7ArjBdKzvLVy4vzQtZJREQAREQgQ4JfA3bWzbg9bYv6dB3bW5DYEmYHQvVl53V+6ttEMiqCIiACKRB4B6EYdWAN9rVYC7fdao/3HvQUX1Z1zcueScCIiACvgl8Fe41noit/v8IvmzmG1e23nG2xkWQVd1otMvbV0oiIAIiIAIFCXjqBWD38koF49Hu5RP4CbJsPAlb/r9x+SEqRxEQARHIj4CnXgCeVEZCi+RXDG4j3hmeccCd5Qm/3rYeKOW2qsgxERCBGAn8C07XN7LW75+BP4NiBJmYz1sgng8h6/pQs/8JfFk1McYKRwREQARMCawG62xcaw2th9fH4M/cplTyNr4+wvewYmR9XfxD3kWi6EVABESgGgK/R7b1ja2H94/CJ/UEVFPefeU6DF+OhzzUgZoP78GfIZCSCIiACIhAyQTmQ37vQrUG18vri/BpaMmxKrvmBIbhK28nf9ZFDkRUEgEREAERqIjAj5CvlxN/vR8cGLhiRTEr2y8I7IK3XJ65nr2H98/Cp35fuKl3IiACIiACZROYCRny8aoeGv1GHzhFUOsElF3iX+R3BN56Gu1fX/4q9y/KSe9EQAREoDICayPnSVB9A+zlPRcLOrCyyPPMeGaEfSHkpYwb/bggz2JR1CIgAiJgQ+AkmG1siD39fwn80wOEiteNwcjiPsdl/Sp8G1g8TOUgAiIgAiLQLgH+KuRcfE8n/UZfOE1Q4wLaLdGpt+MCP2OgRq5e/uftiM2ndlufiIAIiIAIVE1gPRjwtjZA48npffh4EMS16pXaIzAnNrsYamTp7f8z2gtHW4mACIiACFRB4ERk6u3E0Js/N8PPJaoAkFie2yEedqv3xtDTZw/BRz59UEkEREAERMCIwIywewfk6eTQzBcuFHMoRJ+VpiTAe/1XQs3Yefqcsz2WnNJ9/ScCIiACImBBYBEYfQvydJLoy5en4evXLEA5tDk7fDoO4sVRX8w8fce1CJREQAREQAScEOAJlYOyPJ0oWvnyD/i7ihN+od3gIE6OjXgTasXJ2/fHh4YleyIgAiIgAn0TOAFfeztZtPKHFy2XQyv0HVoy33Jq5CHQKKgVG6/fs8w4VkFJBERABETACYHp4cdVkNcTR19+8aTC58hvDaWYFkNQvECL6VZNX+U1DrEsl2JBKSYREAERiJXAbHD8Eaivxtv7dw/A/30h3h+PObGb/5vQtZD36Zrd1IknENcASEkEREAERMAJgcHw4w2om0bd0z4TEMN5ENeZnwGKIfWDk1tA50Aen9xYdvn+EXFqjQdAUBIBERABLwTWhCMxjSxvdWL6D+I5C9oKmgXylBaGM8MhngzZNd4qltS+55gGpUQI6GoukYJUGNkT4ECtP0Gx/Hput8A+wIa3Q7dBXAPh3xBXHAyROM5iWWh1aG1oIyj3OfF8MNWm0K2QUuQEdAEQeQHKfRGoI7Ab3l8ATVf3WWpv+QRCPnfgUejxHr2I15EQv+smcbQ+b6UsAS0DLQ1x0NvKkLceCLhknt6EB6tBr5l7IgcKEdAFQCF82lkE3BHYBx6x+zy3Y5szCzgW4nXo7R5NxCu76Tkoj2lGaA6I6+8PhAZBC0H8TKkzAvdg8w2hbi+6OrOmrUVABERABNoicCC2Su3es+LxV6ZntFUbtZFbArzHpSQCIpAWgXsRDn+ZbZxWWIrGGYE14M9LEKeiKomACIiACDgi8F34kuKcdPUG+OkN4IBMjgdQipBAbvcJIywiuSwChQjwYS4cGMj730oiUAWBl5EpZ0pw5UOliAikPFo4omKQqyJQGYFLkTOnCIaaOldZIMrYLYFF4RnrmW4puy2i3h1TgfXORZ+KQEoEnkMwt0Nce1/T2lIqWT+xLAZX2KN8ix+X5IkIiIAIiECNABtpzqHXPXQxqKIOcCrm9rXKplf/BDQGwH8ZyUMRKJMAH+hyEfT1MjNVXiLQQ2A8Xrk09dMi4p+AbgH4LyN5KAJlEuD0QC4ZzDRs8l/9EYHyCPRDVhtCF0Ifl5etcqqCgC4AqqCqPEXAP4Fb4SKX0uXT9/pDSiJQFoH5kdEQ6K9lZah8qiGgC4BquCpXEYiBwFNw8hKIC7pwLXwlESiLwIrI6B2Ii1IpOSWgCwCnBSO3RCAQAa6VfxHEpwiuC2lcECBEmD6Ez96eBLkJfOKsgJER8pTLIiACIpAVgcMRbRWjw5VndVz5wKMDID69kBdz3ljz4UwLQEoiIAIiIAJOCawFvzyeQLyd0Dz5czfKbOm6+rQt3nMqnicf6ctd0EyQkgiIgAiIgDMCq8Af3q/1duKQP72XyXsoqx9Dvd3C/aXTcjwFfimJgAiIgAg4IsBfkKMgnWzjYHA1ympoH/WHFwXXOS3P4X34ra9EQAREQAQCElgCtl6DdPL3z4DLOX+tzboxN7Yb4bBc2XOxapsxaDMREAEREIGKCAxBvi9DOvn7ZjAaZfRDqNN76FyN7wOH5csLmTkhJREQAREQAQMCXKiFS7Xq5O+XAQdkngDNAXWb9sGOHsuYtzGm6zYo7ScCIiACItAdgfmwGxcA8nhikE+fzcQ4FuUzsLvinWqv3zst659N5ak+EAEREAERqIwAu14fgHSi9cfgdZTL0VBZJ35kNTlxmed/Q97K/BP41O6YhsmB6I8IiIAIiEB3BGbHbvdB3k4EufvDC7I9oBmhqhKXeeZYAm+sx8CnxasKWvmKgAiIgAhMM80sgHAb5O0EkKs/XHPhbGg9KFTaGIYmQd6YPwKfWD+VREAEREAESibALuAbIW8Nf27+8NG4f4d2gvjIXIt0BIx65H6BBQzZFAEREIGUCbBbmSOuPTb6Ofj0PtjfAB0EceaFdZoWDlwOeWT/PWs4si8CIiACqRCYAYF4bezrT0Afwc/6/2N/zyffnQ/tCM0KeUucVvgM5I3zh/Dpy95gyR8REAERiI0A51hfBHlr5Bv9eQI+zgstD/GJdldAvD/euJ3n/7mM8mXQvtCSUAxpBTg5AfLG9VX45KGnJIYyLMVHdgkpiYAIpEOAx/Rvoe84D+l5+LchxOlv9Ylr2a8CrdHzyqVjV4Q6XQkPu5Se3kaO9/eIo/f5/hUoxvRNOH2pQ8dvg0+bQBywWHUaAAMLQJwhMzPE8TJMtD22R5w9MR5KMukCIMliVVAZEzgFsR/oPP6X4d8GELvL20kcy8BegmWgxXo0tOd1YbzydkcZid3Q/4F4UULfuGwt9WzPK08GKaVfIZiDHQZEvw4pyS+e2HlB+SWID75aCloCWhBqd/bBRGzL+sB6wQvXZyCupMkerHbrMDb1l3QB4K9M5JEIdEvgeOx4WLc7B9qPjSh/+bMhLSsNREZzN4gNfy3NijczQfxlx19zH0AcoMducD6ghid2duWPgXJKvHC6CeLFmKfEWxPsofhTF07xV/0waFNoXWgliBeQVSVeMP67R7fg9V6IF5JKIiACIhCMwE9hiQ2nZ70J/5YNRkSG2iEwCBu9BnmrN7xQW76dALANxw3sB/EEbD2olL0F10P7Q1yASUkEREAEKiXA7lJvDXijP/x1vXKlFJR5twTWwY781dpYZtb/Pw2fZm8SVD98vit0I8SeHWtfm9nnOJHvQxrcCAhKIiAC5RL4HrL7FGrWAHn4fCz84+NplfwS4C9oD3Wl0Ye/wa/6W9VD8P9J0FtQ47ae//8Y/l4NbQHVx4N/lURABESgcwJ7YhfvJ3/eZ1+/89C0hwGBC2HT40n0cPi1HHQBxBOpRx878YmDCL8L1WYd4K2SCIiACLRPgIOkPHd9skHkQDtO6VKKg8AscPNhqJOTWYht+eRAKoStkDY49oK3B2aGlERABESgLQLbYivrwU6tGkr6t3Vb0WgjTwQWhTOxda+3qovev38VzPeBuAaGkgiIgAg0JbA5vvkA8tyosZuWS+EqxUnga3A7xV/cno8Z+nYvxEWvlERABERgKgLr4hOPS7jWN6wck7D3VJ7rg9gIHAWH68tV78PwYM/ZCRDXrVASAREQgckE1sbfcZDnhpgn//+e7K3+xE5gOgRwDeS5vqXs2yNgz2WwlURABDInwIYghofkHJR5OaUWPldYfB5K+UTrOTauzXAopGmDgKAkAjkS4PrloyDPDRV9OyLHwskgZi6ly9XtvNe/lP37I/hzhoaSCIhARgT40BKune+9cftFRmWSY6jfiqAOej9Givr3EMpgcI6VTzGLQI4EeLCPgIo2HFXvf3KOhZNhzL+JoC5WXdet8+ePgbUyrHsKWQSyIrAQon0Bsm5wWtk/Ez7q/mQeVZNP1LszgjrZqs7G/j2fXrlxHlVOUYpAfgTmRch8zrj3horLsnKkuFI+BAYhVI9PDvR+rJTtH8dkbJRPtVOkIpAHgTkR5oNQ2Q1G2fn9BT7yWfJK+RFYByF7fHJg2XXce368CBiWX/VTxCKQJgE+9vQ+yHvD8w/4yEexKuVLgOvXe6+nOfjHRcE2zLcaKnIRSIMAp/jcBnlvtG6Aj3qCWRp1rmgUvAXkvb7m4N8YlANnCymJgAhESIBPArsJ8t5Y3QEfZ42Qr1yuhgDrbQy3q7wfV2X49xTKgj2ISiIgAhER4HrfV0NlNAJV5nEPfJwtIq5yNQyBJWEmhhUqqzw2vOR9BcpCM3LC1HtZEYHCBPjoT67w5aUBaebHw/BxrsLRKoNUCfCRz3pyoI/j+KepVjLFJQIpEeDJ/w9Qs5Oul88fh4/zpAResVRC4Fjk6qXO5uwHL8Q0PbCSKq5MRaAcAuymOxvy3lA9Bx8XLCdk5ZI4Aa4HcS3kvU7n4N8IlMOAxOubwhOBaAmcBM+9N0Qj4eOQaAnLcQsCfHLgC5D3up2Dfye3WwE0aKBdUtouZgLzwfmh0BBobmiOHuHl8zQW7zil5j/QyxAfgzoOKjOdiMx+XGaGFeTFld42hNiYK4lAuwTYC3AntHa7O2i7ygh8ipw3gFgeSiKQFQEOWNsB4i/tmyCe1Lu96ufDN66CfgLx3lqRBXCOwv7d+hFqvzfh4zKQkgh0SmB/7BCqnspOa9ZPozy0ZkentVjbR0lgBXh9FHQ/xIEwVTUQ45E3p9vsBbEXod30I2xYlU9l5fs2fFyp3YC0nQjUEVgY79mDVlZdVD7lsPxBXRnprQgkRYDd+jyxchEMiwbjfdi9DNoE6ivthy/ZJWfhY7s22Xiv0VcQ+k4E+iDAi+J265rX7bisLi+CeetrFJTC+ga8nan1OwBBKR0CKyMUTqHz9ECSR+DPcGhGqD6xp8D7yZ8N33r1Tuu9CHRAYENs6/Wk3ptfvNj9J/RzaFuIvYfNVrjk8bwYxMfvHgzxgn8k1Fu+Xj87Cv4qiUD0BFZHBJxq5PmEyqlzO0PTQrtAkyCvDQP9Yi+Gni0OCEpdE7gLe3qu4/SNv+bPhDaDuPpm0cQfIUdBvM/uPXZe8GgtD0BQipPAULh9KeT5xN/YCDwKfz+GGj/39D97ULaElESgWwJfx46e6nSjL+yZYy8cH7ZVReKFPi+geQvEc/v0yyqCV54iUCUBXqkfCb0HNR7Y+r8YE16ccKaEkgh0S4Anv8cgj8cie+K+BU0HhUrsobwO8siDPSBVXQSF4is7GRHggLQnIY8HU+w+cZbErhnVJYVaDYEtkK23Y+Ej+MRliYtM1y1Ka0dkwEGE3tjsXTQw7S8CVRPgFfvhEA9kbwdQCv6wm/I7kJIIFCXg7dcuf/WvUjSokvafG/l4mxnxQEmxKRsRqIQAF/C5HkrhROs1hgMrKTllmhsBjpz3dM+bFyMDnRUCb5Ec5YzTWs4YyR0RmExgRfx9HvJ64kzBr0NV10SgJAKnOzpWL4Av05cUVxXZ7IZMvcwGOq+KAJWnCBQhsCF2fhdK4STrNYafFykg7SsCdQQ4N3405KGu/x5+hBzoV4eho7ffwNYceGvNjIMBG9cq6SgQbSwCZRLgNCLORbc+MFK2f1KZBaa8siewtZPj9Ur4EcPJv1ZhvueEm9b9qJWIXk0J8OSvwX7VXvycA8a8F6kkAmUR4Gp41hfMnCE0R1kBBcznDAfsTg0Yr0yJQK8EuADNh5B1Q5Ky/XPBVyf/XqufPuySANfm4AOxLI+b92B/qS79t96N3e8cjW/J72XYV7tgXRMytr8mYudBbHkQpG6bKyd6HhiVcfWPOvSNHBy3sT/hjk/ctP7x42W6ZNQHg5zvnMBg7PIGlPoJ2DI+zj/WQJ/O66b2aE3gRGxiWbfvhf2Y7vs3I3qMMceDmjmmz0WgKgL9kfGDkGUDkrptPuXMchW0quqO8vVB4GG4YXkMsQcihTQbgvgPZMWSPYRKIhCUAJ/GZVXhc7B7B/g2e6xp0IKWsSQJzI6ouIy01bF0W2JUDzFk+WJiLBWOcwI7GFZ2qwYrpN27wHeA8zog9+ImMAzuh6zTjbY2iRvfVN7PjE/GGDKdnx6lcD+FcSj5JcB1sblymFI1BB5BtltBE6rJXrmKwGQCfECXVeIv1putjFdkl+uf/KGivNvJdi1upAuAdlBpmyIEfo2dJ19tFslE+/ZK4HF8yl9G/CWhJAJVEli1ysxb5P07fP9pi21i/JpxWSUuv64kApUSWAe588Bt7M7T/8WZPAuuC1RaespcBL4gYDmAd/Ev3Eju3dOIyKI9nHzxoR6A5OqTm4BYt06BtOhE+UUyElluCnFKpZIIhCAwNISRXmw8h89e6OXzVD76h1Egk8tTFwBG9DMw+y3EuHoGcYYO8VUY/Ar0cmjDspctgYGIfE6j6Dm1NeVkFZ/VBV3KZanYegjwwvJJyKJrK2Wbo8B06R7GehGBUAR4/9/quPpmqCCN7HBNAIvbpHwOywzqATAq9cTNbov4lk08xtDhvQ2D7PZ/JrRh2cueAGfyWKVHrQwHsjsedkYEslVvhquFDtIFQD0SvS+LwCFlZaR8JhMYh79bQI+JhwgYELB68t4HiJWDXVNPVhc5A3QBkHrVCh/fcjC5bnizSVvkCmxPJB2hgvNMwOoC4HlAmeQZTEm+PV1SPp1mM2CGTvfQ9iLQgsB3Wnxv/TVHFXMgHe+ns/uNA5zmgxaFhkAeE33cHrJcOMQjF/kUhgDvU1uk0RZGDWzyuQAWaVZdAFhgT9cme5S8Ddrh4KVroT9DN0KvQc3SYvhiE2gXaBjkKe0FZ3QB4KlE8vGFx7VF0gVAtdT17JBq+WaX+zqI2Gq0cKNdjqy9EFqhy1LgUplXQY35Wv3PrtB5u4xFu4lAEQLfx84W9T6XJcQ3N+K7k9WVXZHKqH39Evi6E9f4y4Hr4+8BcbncbhKfPb4NNBzirQLrND0c2NraCdnPkgAvpi0S63wOyeo8PMnKcA6FmmOM7D63TvfBgS9B7PYvI7EXYTXIw/Q7XtQoiUBoAlYD8QaEDtTI3uxGdifqAsCIfIJmOVJ4JeO47of9TaHXS/aDAwe5+p71kqQbwIdpS45N2YlAKwLvtNqgou+tTowVhdM0W6s4J+gCoGmZ6IsOCfD+v2WX3Zuwz1sQnDNfReK6+9tAlo/dnRv2Oc1SSQRCEngrpLE6W0Pq3qf81ipO9QCkXKsCx7ZKYHuN5v4bH/Q1wr9x+27+5/LGh3ezY4n7rF1iXspKBNohwFUoLdISMJrDj1Sr5b11AWBRqxO1afnL9AYwvSIQ1zNgx3JRnhUCxSkzIlAjYDVPfWY4MKTmRMKvVsumj8nh6irheuMqtOUNvTkmoG2OiD42oL1GU7oAaCSi/6smwDE171dtpEn+6zX5PJWP50EgyxgEMxY2dQFgAD5Vk4ONAmO3/L8C2/4r7FktUsJuUSURCEmAF70vhjRYZ4uDb1NOwxCcxQ/xEYRqYZh2ldIi0A/hcLlai/QXA6N8lObVBnZpcgFIMwGM4Gds9nmj2DmrJ+Xz1GZGXF+i3ZTBGnHN0uz8iNrqpMT7/xbpegujsMmLrbmMbMtsvgSeMgp9IdgdZmS7arM8lnes2kiT/NUD0ASMPu6cgNU8Vi5P+nDn7payx0Ol5NJdJlZPZ+vOW+2VAoF/Gwaxu6HtKk1vhcytek4nr2miHoAqizefvGc0CpWDk6yW6WWXqNUKabMY8ZbZfAncZxj6TrCd4nMwvmfIdPIFnS4ADEsgIdNWFwBW05NYdBwYZTUQsH9CdUehxEHgVbj5hpGrs8Lu941sV2X2y8h4o6oyb5HvB/h+cs+pLgBakNLXbRFgV7xFspqaVIv1vdqbwK+fBLYncyJAAqFn29RT3w//pDT25Wf1wQV+z9uXHMisQYCBwadqzmp53AHGQK3GPnxoHLfM50ngOsOwOe7leEP7ZZrmUz23KDPDDvPik06VRKA0AosgJ/YChNa7pUXQeUbsluRtgNAx094QSEkEQhNYGAYt6nvNJnu+1goddMn2uLoh11SoxWTxunPJMSm7zAnMaVihBxuxZ0NkcfDSJi8+lETAgsDjMGpV72mXC3/FXP9PM+b3MezzoWKTk8YA1EjotQgB3gLgwWmRrFYKs7JL1hMtQMumCICAxcJb9eC5bv7p9R9E9J6zGTiWwTLdAeNWD3eyjFu2KybAUcIWvwysVuT7t1G8T1VcjspeBPoiwHXrLY7zRpuWU+j64tPsuxXxBdffb4wj9P+pzaZoxlufByZwk1Hl5mjWxQLHuoZRrGwsrggcq8yJQCMBjiIPfeJqtMc1OHZsdMzp/0PgFx9V3hiDxf9D6xnpFkA9Db0vQuCZIjsX2JdrEBxbYP9udj2xm51K2ufpkvJRNiLQLYGLu92xxP2mR170g6vpeU4co8TZEws6cPJR+DDCgR9yIUECByEmiyta2uRo/NUCMd3SME7GqhG8gQpaZpoS4CAyroFhdbzX2+WgtuFNPbX9go/utro1Ws+o9v4QWxyynjKBjRBcraJZvHJ0MOcKV5kWQObWB/SQKgNU3iLQJoHzsJ3Fcd6bTf4AOBaaoU3fQ2y2DYyMgXrz1+IzXrCltJBSiDKUjQ4IzIJtucSkReWu2fw77LNrsIrE5Xfvhmq2LF6tlmKtgqfyjJvA6sbHQm/H323wiU8PtEwzwfj/Qbwo6c1Hq8/OtYQi23kQuBVhWlXwmt3z4AMPwjITVxy8EqrZsHq9sMyglJcIFCRwM/a3Ohaa2eXiYAdAVf0Q6AsZpwazJ7KZb5afc+CykghUSuAo5G5ZyWu2b4cf85YU6RDk8zBUy9vyddeSYlI2IlAGgWHIxPJ46Ms2ZypsDU0LVZ2Wh4HLIG+/+mt87qsagPIXARJYD6pVOuvXV+DL7lC3M104u4CLdrwFWcdC+5zuyMFXSiLgiQC73T0cH8184MX7bhBvUZaZeGGxAXQ5xCWKm9n38Pl28E9JBConwJMtT7weKn3NB/4S+DrU7iOLea+fv7SfhWp5eHi9Fv4oiYA3AsPgkIfjo5UP4+DnedC20JxQN4ltCH/kcMDhCKiVTQ/f88E/TXtBmn6BnZREoBsCJ2CnQ7vZseJ9+Ev+euhOiGsWvAlxZCzv7w+CuMTo+tAmUNWzCWCi47Qn9rig4720gwhUT+BvMMGL7FgSf7HzhwF7B3ihz/aAI/bH94g/AmaDBkJDoaUhdvN/GZoViimxPbupmcO6AGhGRp93S2A57PhEtztrv14JvItPF4Ym9vqtPhQBWwKLwTwHv/WzdUPWGwjchv+HNXw2xb/d3h+dIhP9IwJ1BNgQPFD3v94WJ3AhstDJvzhH5VANgReR7SnVZK1cuyTA2w8/7nJf7SYChQjsgb093P9KwQd2Vy5VqDS0swhUT4Bd489DKRxzKcRwevVFLgsi0DsBzsF9DkrhQLKO4Y+9I9anIuCOwLrwiBes1sdM7vZfQhlwDEPLZLFYQkuntEH0BHgActraVtFHYhsAOe4OjbJ1Q9ZFoC0CnAE0H7RmW1troyoIsM34JsRbsUoiYEaAA4JehXK/Gi8S/6VmpSfDItAdAd4K4CDgIvVe+3bP79zuik17iUD5BDQWoPsDmc9V4BQkJRGIjQBnAk2AdCIPy4BjMLpd4yC2OiZ/IyDAaaaciqKGoHMGx0dQvnJRBJoR0MV/58d8kXaSaxis2Kww9LkIWBHgAhocD1Ckcue27wvgNbNVgcmuCJRE4FTkk9uxaxHvp+C8U0llpmxEoHQCJyJHiwMjRps8mDctvQSUoQiEJ8BB5tdAMR6HMfl8XPiilUURaJ8ABwT+G4rpoLLy9dftY9WWIuCeAJfafhCyOp5St8vHlGtBP/eHgRxcDAi4pG3qB2SR+Lg+OS+WlEQgJQILIBiut1/k2NC+U/P7B5iqvUjpSEk8lh3VCDRtBN8Gm8UTL3+Fly8BPstCKwVOfRLv9sKGDzbTOKF8j6doI+fo9m4rfar7TQKTzaItUTkuAu0RWBSbjYBSPY5DxXUDGOrk316d01bOCHBq4LlQqIMlBjv7OCsjuSMCVRFYCBk/BsVwXHr0kd3+s1RVOMpXBEIQmAFGroI8HmChffpZCOCyIQKOCHCxGq0P0nn79ytw0/L9jiqyXOmeALuwboJCn3A92ePtECURyJFAfwR9CeTpePTqy4fgtFeOlUQxp02AI1j/DHk98Kr069i0i1bRiUBbBL6PrT6GqjzWYs77TbBZry2S2kgEIiTAOax8dnXMB2knvvNxqQdFWE5yWQSqIrABMn4D6uQ4ymHbG8Fk4aqgK18R8ETgUDiT+i8BPiBlO0/Q5YsIOCEwL/y4HMrhxN4qxvfAgT0jHDCtJALZEOAvgVQfIfwsYtPDOrKpygq0SwJc0/4tqNVJMtXvb0HsS3fJTruJQPQE+EuAU11SOsA52GmO6EtGAYhAGAKDYOYC6FMopXagr1hGINZvQkoikD0Bdn19B4r9lwD9/0b2pSkAItAdgbWx231QXyfO2L/jCqA/hjgrQkkERKCOwNx4fw4U2y8BDvSj3/NASiIgAt0T4CBhXkSntnjQaMR0BDQbpCQCItAHAf4SuA6K4Wr/Fvi5Vh+x6CsREIHOCfBCgM8SeRiKoR1o5iMvZPaFZoWUREAEOiCwBra9AvLYI8CVzTbuIBZtKgIi0B2B9bEbx9V8ADU70Xr6fBz8PA/aEFISAREoSGAF7H8yxEUyLA90Tte5EFoNUhIBEQhLYD6YOxi6C/L2o2AsfPojxIF9WrsfEJREoGwCfKbAVtBlEK+yQ1wMfAQ7XMJ4b0gj+wFBSQQcEOCCOVxgi4/J5XobIdqCehuTYJMDFk+ENoO4yqn7pIUG3BeRHGyTAC8GVoc26hHHDZRxn40D+p6A7oZ44mcDw6t7JREQAZ8EZoRba0LDel7ZYzgUKut8xx8BL0C8n38/9EDPK3+ERJXKAhJV0HI2CwKs24MhLqpBLQXND3HULS8MBkD8Bc+r+HchdiFyZC71BvQM9BT0JDQeUhIBEYiXAI/35SG2A4MgPpaYr3NDs0N8yl4/iN31vMCn2C68A70Cvdaj5/D6IsRf/NGn/w+ysx002RU83QAAAABJRU5ErkJggg==;" vertex="1" parent="Cp5TMdXFQTga1ehjYprz-31">
          <mxGeometry x="108.61000000000013" y="100" width="112" height="112" as="geometry" />
        </mxCell>
        <mxCell id="Cp5TMdXFQTga1ehjYprz-38" style="edgeStyle=orthogonalEdgeStyle;rounded=0;orthogonalLoop=1;jettySize=auto;html=1;" edge="1" parent="1" source="Cp5TMdXFQTga1ehjYprz-37" target="Cp5TMdXFQTga1ehjYprz-32">
          <mxGeometry relative="1" as="geometry" />
        </mxCell>
        <mxCell id="Cp5TMdXFQTga1ehjYprz-37" value="EAS" style="shape=image;verticalLabelPosition=bottom;labelBackgroundColor=default;verticalAlign=top;aspect=fixed;imageAspect=0;image=https://attest.org/logo2.png?v=3;fontSize=15;strokeWidth=1;" vertex="1" parent="1">
          <mxGeometry x="945" y="2072" width="72" height="72" as="geometry" />
        </mxCell>
        <mxCell id="Cp5TMdXFQTga1ehjYprz-39" value="" style="group;fillColor=none;strokeColor=none;" vertex="1" connectable="0" parent="1">
          <mxGeometry x="1240" y="2330" width="365" height="236" as="geometry" />
        </mxCell>
        <mxCell id="Cp5TMdXFQTga1ehjYprz-40" value="" style="rounded=1;whiteSpace=wrap;html=1;fillColor=default;strokeColor=light-dark(#924ddb, #ededed);labelBorderColor=none;fontColor=#FFFFFF;shadow=1;gradientColor=none;" vertex="1" parent="Cp5TMdXFQTga1ehjYprz-39">
          <mxGeometry width="329.2156862745098" height="236" as="geometry" />
        </mxCell>
        <mxCell id="Cp5TMdXFQTga1ehjYprz-41" value="&lt;font color=&quot;#7c59e6&quot;&gt;&lt;span style=&quot;font-size: 28px;&quot;&gt;&lt;b&gt;Multi Party Verifier&lt;/b&gt;&lt;/span&gt;&lt;/font&gt;" style="text;html=1;align=center;verticalAlign=middle;resizable=0;points=[];autosize=1;strokeColor=none;fillColor=none;" vertex="1" parent="Cp5TMdXFQTga1ehjYprz-39">
          <mxGeometry x="29.6056862745098" y="34.99818181818182" width="270" height="50" as="geometry" />
        </mxCell>
        <mxCell id="Cp5TMdXFQTga1ehjYprz-42" value="" style="shape=image;verticalLabelPosition=bottom;labelBackgroundColor=default;verticalAlign=top;aspect=fixed;imageAspect=0;image=https://d3.inc/wp-content/themes/d3-theme/assets/images/logo.png;" vertex="1" parent="Cp5TMdXFQTga1ehjYprz-39">
          <mxGeometry x="62.26470588235295" y="134.0909090909091" width="191.75" height="52.29545454545455" as="geometry" />
        </mxCell>
        <mxCell id="Cp5TMdXFQTga1ehjYprz-43" style="edgeStyle=orthogonalEdgeStyle;rounded=0;orthogonalLoop=1;jettySize=auto;html=1;entryX=0.5;entryY=1;entryDx=0;entryDy=0;" edge="1" parent="1" source="Cp5TMdXFQTga1ehjYprz-40" target="Cp5TMdXFQTga1ehjYprz-32">
          <mxGeometry relative="1" as="geometry" />
        </mxCell>
        <mxCell id="Cp5TMdXFQTga1ehjYprz-51" style="edgeStyle=orthogonalEdgeStyle;rounded=0;orthogonalLoop=1;jettySize=auto;html=1;" edge="1" parent="1" source="Cp5TMdXFQTga1ehjYprz-44" target="Cp5TMdXFQTga1ehjYprz-40">
          <mxGeometry relative="1" as="geometry" />
        </mxCell>
        <mxCell id="Cp5TMdXFQTga1ehjYprz-44" value="&lt;font style=&quot;font-size: 14px;&quot;&gt;&lt;b&gt;Participents&lt;/b&gt;&lt;/font&gt;" style="rounded=1;whiteSpace=wrap;html=1;gradientColor=light-dark(#924ddb, #ededed);fillColor=light-dark(#6865f0, #ededed);fontColor=#FFFFFF;shadow=1;strokeColor=light-dark(#934dda, #ededed);gradientDirection=west;" vertex="1" parent="1">
          <mxGeometry x="750" y="2421.5" width="305" height="53" as="geometry" />
        </mxCell>
        <mxCell id="Cp5TMdXFQTga1ehjYprz-48" style="edgeStyle=orthogonalEdgeStyle;rounded=0;orthogonalLoop=1;jettySize=auto;html=1;entryX=0;entryY=0.5;entryDx=0;entryDy=0;" edge="1" parent="1" source="Cp5TMdXFQTga1ehjYprz-45" target="Cp5TMdXFQTga1ehjYprz-44">
          <mxGeometry relative="1" as="geometry" />
        </mxCell>
        <mxCell id="Cp5TMdXFQTga1ehjYprz-45" value="Wallet" style="shape=image;html=1;verticalAlign=top;verticalLabelPosition=bottom;labelBackgroundColor=#ffffff;imageAspect=0;aspect=fixed;image=https://cdn1.iconfinder.com/data/icons/unicons-line-vol-6/24/wallet-128.png" vertex="1" parent="1">
          <mxGeometry x="440" y="2297" width="63" height="63" as="geometry" />
        </mxCell>
        <mxCell id="Cp5TMdXFQTga1ehjYprz-49" style="edgeStyle=orthogonalEdgeStyle;rounded=0;orthogonalLoop=1;jettySize=auto;html=1;" edge="1" parent="1" source="Cp5TMdXFQTga1ehjYprz-46" target="Cp5TMdXFQTga1ehjYprz-44">
          <mxGeometry relative="1" as="geometry" />
        </mxCell>
        <mxCell id="Cp5TMdXFQTga1ehjYprz-46" value="Wallet" style="shape=image;html=1;verticalAlign=top;verticalLabelPosition=bottom;labelBackgroundColor=#ffffff;imageAspect=0;aspect=fixed;image=https://cdn1.iconfinder.com/data/icons/unicons-line-vol-6/24/wallet-128.png" vertex="1" parent="1">
          <mxGeometry x="440" y="2420" width="63" height="63" as="geometry" />
        </mxCell>
        <mxCell id="Cp5TMdXFQTga1ehjYprz-50" style="edgeStyle=orthogonalEdgeStyle;rounded=0;orthogonalLoop=1;jettySize=auto;html=1;entryX=0;entryY=0.5;entryDx=0;entryDy=0;" edge="1" parent="1" source="Cp5TMdXFQTga1ehjYprz-47" target="Cp5TMdXFQTga1ehjYprz-44">
          <mxGeometry relative="1" as="geometry" />
        </mxCell>
        <mxCell id="Cp5TMdXFQTga1ehjYprz-47" value="Wallet" style="shape=image;html=1;verticalAlign=top;verticalLabelPosition=bottom;labelBackgroundColor=#ffffff;imageAspect=0;aspect=fixed;image=https://cdn1.iconfinder.com/data/icons/unicons-line-vol-6/24/wallet-128.png" vertex="1" parent="1">
          <mxGeometry x="440" y="2536" width="63" height="63" as="geometry" />
        </mxCell>
        <mxCell id="Cp5TMdXFQTga1ehjYprz-52" value="" style="group;fillColor=none;strokeColor=none;" vertex="1" connectable="0" parent="1">
          <mxGeometry x="1770" y="1990" width="365" height="236" as="geometry" />
        </mxCell>
        <mxCell id="Cp5TMdXFQTga1ehjYprz-53" value="" style="rounded=1;whiteSpace=wrap;html=1;fillColor=default;strokeColor=light-dark(#924ddb, #ededed);labelBorderColor=none;fontColor=#FFFFFF;shadow=1;gradientColor=none;" vertex="1" parent="Cp5TMdXFQTga1ehjYprz-52">
          <mxGeometry width="329.2156862745098" height="236" as="geometry" />
        </mxCell>
        <mxCell id="Cp5TMdXFQTga1ehjYprz-54" value="&lt;font color=&quot;#7c59e6&quot;&gt;&lt;span style=&quot;font-size: 28px;&quot;&gt;&lt;b&gt;AI/ML Filter&lt;/b&gt;&lt;/span&gt;&lt;/font&gt;" style="text;html=1;align=center;verticalAlign=middle;resizable=0;points=[];autosize=1;strokeColor=none;fillColor=none;" vertex="1" parent="Cp5TMdXFQTga1ehjYprz-52">
          <mxGeometry x="74.6056862745098" y="34.99818181818182" width="180" height="50" as="geometry" />
        </mxCell>
        <mxCell id="Cp5TMdXFQTga1ehjYprz-55" value="" style="shape=image;verticalLabelPosition=bottom;labelBackgroundColor=default;verticalAlign=top;aspect=fixed;imageAspect=0;image=https://d3.inc/wp-content/themes/d3-theme/assets/images/logo.png;" vertex="1" parent="Cp5TMdXFQTga1ehjYprz-52">
          <mxGeometry x="62.26470588235295" y="134.0909090909091" width="191.75" height="52.29545454545455" as="geometry" />
        </mxCell>
        <mxCell id="Cp5TMdXFQTga1ehjYprz-57" style="edgeStyle=orthogonalEdgeStyle;rounded=0;orthogonalLoop=1;jettySize=auto;html=1;" edge="1" parent="1" source="Cp5TMdXFQTga1ehjYprz-32" target="Cp5TMdXFQTga1ehjYprz-53">
          <mxGeometry relative="1" as="geometry" />
        </mxCell>
        <mxCell id="Cp5TMdXFQTga1ehjYprz-62" style="edgeStyle=orthogonalEdgeStyle;rounded=0;orthogonalLoop=1;jettySize=auto;html=1;entryX=0.5;entryY=0;entryDx=0;entryDy=0;" edge="1" parent="1" source="Cp5TMdXFQTga1ehjYprz-59" target="Cp5TMdXFQTga1ehjYprz-32">
          <mxGeometry relative="1" as="geometry" />
        </mxCell>
        <mxCell id="Cp5TMdXFQTga1ehjYprz-59" value="&lt;font style=&quot;font-size: 20px;&quot;&gt;Encrypted Storage&lt;/font&gt;" style="image;aspect=fixed;perimeter=ellipsePerimeter;html=1;align=center;shadow=0;dashed=0;spacingTop=3;image=img/lib/active_directory/database_cube.svg;" vertex="1" parent="1">
          <mxGeometry x="1305.61" y="1680" width="198" height="220" as="geometry" />
        </mxCell>
        <mxCell id="Cp5TMdXFQTga1ehjYprz-64" style="edgeStyle=orthogonalEdgeStyle;rounded=0;orthogonalLoop=1;jettySize=auto;html=1;entryX=0.5;entryY=1;entryDx=0;entryDy=0;" edge="1" parent="1" source="Cp5TMdXFQTga1ehjYprz-63" target="Cp5TMdXFQTga1ehjYprz-44">
          <mxGeometry relative="1" as="geometry" />
        </mxCell>
        <mxCell id="Cp5TMdXFQTga1ehjYprz-63" value="&lt;font style=&quot;font-size: 14px;&quot;&gt;&lt;b&gt;Document SFT&lt;/b&gt;&lt;/font&gt;" style="rounded=1;whiteSpace=wrap;html=1;gradientColor=light-dark(#924ddb, #ededed);fillColor=light-dark(#6865f0, #ededed);fontColor=#FFFFFF;shadow=1;strokeColor=light-dark(#934dda, #ededed);gradientDirection=west;" vertex="1" parent="1">
          <mxGeometry x="750" y="2610" width="305" height="53" as="geometry" />
        </mxCell>
        <mxCell id="Cp5TMdXFQTga1ehjYprz-66" value="" style="edgeStyle=orthogonalEdgeStyle;rounded=0;orthogonalLoop=1;jettySize=auto;html=1;" edge="1" parent="1" source="Cp5TMdXFQTga1ehjYprz-65" target="Cp5TMdXFQTga1ehjYprz-59">
          <mxGeometry relative="1" as="geometry" />
        </mxCell>
        <mxCell id="Cp5TMdXFQTga1ehjYprz-67" value="Access" style="edgeLabel;html=1;align=center;verticalAlign=middle;resizable=0;points=[];" vertex="1" connectable="0" parent="Cp5TMdXFQTga1ehjYprz-66">
          <mxGeometry x="-0.0344" y="-4" relative="1" as="geometry">
            <mxPoint y="4" as="offset" />
          </mxGeometry>
        </mxCell>
        <mxCell id="Cp5TMdXFQTga1ehjYprz-65" value="&lt;font style=&quot;font-size: 14px;&quot;&gt;&lt;b&gt;Document SFT&lt;/b&gt;&lt;/font&gt;" style="rounded=1;whiteSpace=wrap;html=1;gradientColor=light-dark(#924ddb, #ededed);fillColor=light-dark(#6865f0, #ededed);fontColor=#FFFFFF;shadow=1;strokeColor=light-dark(#934dda, #ededed);gradientDirection=west;" vertex="1" parent="1">
          <mxGeometry x="1780" y="1763.5" width="305" height="53" as="geometry" />
        </mxCell>
        <mxCell id="Cp5TMdXFQTga1ehjYprz-68" value="" style="group;fillColor=none;strokeColor=none;" vertex="1" connectable="0" parent="1">
          <mxGeometry x="1770" y="2330" width="365" height="236" as="geometry" />
        </mxCell>
        <mxCell id="Cp5TMdXFQTga1ehjYprz-69" value="" style="rounded=1;whiteSpace=wrap;html=1;fillColor=default;strokeColor=light-dark(#924ddb, #ededed);labelBorderColor=none;fontColor=#FFFFFF;shadow=1;gradientColor=none;" vertex="1" parent="Cp5TMdXFQTga1ehjYprz-68">
          <mxGeometry width="329.2156862745098" height="236" as="geometry" />
        </mxCell>
        <mxCell id="Cp5TMdXFQTga1ehjYprz-70" value="&lt;font color=&quot;#7c59e6&quot;&gt;&lt;span style=&quot;font-size: 28px;&quot;&gt;&lt;b&gt;Reward Mechanism&lt;/b&gt;&lt;/span&gt;&lt;/font&gt;" style="text;html=1;align=center;verticalAlign=middle;resizable=0;points=[];autosize=1;strokeColor=none;fillColor=none;" vertex="1" parent="Cp5TMdXFQTga1ehjYprz-68">
          <mxGeometry x="24.605686274509793" y="34.99818181818182" width="280" height="50" as="geometry" />
        </mxCell>
        <mxCell id="Cp5TMdXFQTga1ehjYprz-71" value="" style="shape=image;verticalLabelPosition=bottom;labelBackgroundColor=default;verticalAlign=top;aspect=fixed;imageAspect=0;image=https://d3.inc/wp-content/themes/d3-theme/assets/images/logo.png;" vertex="1" parent="Cp5TMdXFQTga1ehjYprz-68">
          <mxGeometry x="62.26470588235295" y="134.0909090909091" width="191.75" height="52.29545454545455" as="geometry" />
        </mxCell>
        <mxCell id="Cp5TMdXFQTga1ehjYprz-72" style="edgeStyle=orthogonalEdgeStyle;rounded=0;orthogonalLoop=1;jettySize=auto;html=1;entryX=0.5;entryY=0;entryDx=0;entryDy=0;" edge="1" parent="1" source="Cp5TMdXFQTga1ehjYprz-53" target="Cp5TMdXFQTga1ehjYprz-69">
          <mxGeometry relative="1" as="geometry" />
        </mxCell>
        <mxCell id="Cp5TMdXFQTga1ehjYprz-74" style="edgeStyle=orthogonalEdgeStyle;rounded=0;orthogonalLoop=1;jettySize=auto;html=1;entryX=1;entryY=0.5;entryDx=0;entryDy=0;" edge="1" parent="1" source="Cp5TMdXFQTga1ehjYprz-73" target="Cp5TMdXFQTga1ehjYprz-63">
          <mxGeometry relative="1" as="geometry" />
        </mxCell>
        <mxCell id="Cp5TMdXFQTga1ehjYprz-73" value="&lt;font style=&quot;font-size: 14px;&quot;&gt;&lt;b&gt;Distribution&lt;/b&gt;&lt;/font&gt;" style="rounded=1;whiteSpace=wrap;html=1;gradientColor=light-dark(#924ddb, #ededed);fillColor=light-dark(#6865f0, #ededed);fontColor=#FFFFFF;shadow=1;strokeColor=light-dark(#934dda, #ededed);gradientDirection=west;" vertex="1" parent="1">
          <mxGeometry x="1782.1100000000001" y="2610" width="305" height="53" as="geometry" />
        </mxCell>
        <mxCell id="Cp5TMdXFQTga1ehjYprz-75" value="" style="edgeStyle=orthogonalEdgeStyle;rounded=0;orthogonalLoop=1;jettySize=auto;html=1;" edge="1" parent="1" source="Cp5TMdXFQTga1ehjYprz-69" target="Cp5TMdXFQTga1ehjYprz-73">
          <mxGeometry relative="1" as="geometry" />
        </mxCell>
      </root>
    </mxGraphModel>
  </diagram>
</mxfile>
